<?xml version="1.0" encoding="utf-8"?>
<!-- Generator: Adobe Illustrator 27.7.0, SVG Export Plug-In . SVG Version: 6.00 Build 0)  -->
<svg version="1.1" id="Layer_1" xmlns="http://www.w3.org/2000/svg" xmlns:xlink="http://www.w3.org/1999/xlink" x="0px" y="0px"
	 viewBox="0 0 640 160" style="enable-background:new 0 0 640 160;" xml:space="preserve">
<style type="text/css">
	.st0{fill:url(#SVGID_1_);}
	.st1{fill:#891739;}
	.st2{fill:#621244;}
	.st3{fill:#C51F41;}
</style>
<linearGradient id="SVGID_1_" gradientUnits="userSpaceOnUse" x1="364.0835" y1="90.5341" x2="385.5094" y2="152.199">
	<stop  offset="0" style="stop-color:#C51F41"/>
	<stop  offset="1" style="stop-color:#621244"/>
</linearGradient>
<path class="st0" d="M415.8,113c-0.4-8-3.3-15.4-7.2-21.6c-3.4-5.4-8.1-10.4-14.1-12.8c-3.8-1.5-8.1-1.7-12-0.5
	c-4.5,1.3-7.1,4.5-10.8,7.1c-2.8,1.9-6.2,2.9-9.6,2.9c-4.7,0-9.1-2-13.8-1.5c-6.6,0.7-12,4.5-15.1,10.4c-3.1,6-4,13.7-3.7,19.9
	c1.1,24.1,21.3,42.8,45.1,41.7C398.5,157.7,416.9,137.2,415.8,113z M356.3,110.2c-1.8,4.8-6.1,7.6-9.5,6.3c-3.5-1.3-4.8-6.3-3-11.1
	c1.8-4.8,6.1-7.6,9.5-6.3C356.8,100.5,358.1,105.4,356.3,110.2z"/>
<path class="st1" d="M348.1,4.6c-1.4,2.3-3.4,8-4.1,10.1c-4.4,14.6-4.7,27.3-0.6,42.1c1.7,6.1,4.4,11.9,7.9,17.2
	c2.6,3.9,6.7,11,12.3,10.3c0.6-0.1,5.4-2.2,5.2-2.3c-5.3-3-11.3-10.3-15.3-16.9c-3.9-6.4-6.3-13.6-6.6-21.1
	c-0.5-10.8,3-21.4,8.2-30.8c1.3-2.3,2.7-4.6,4.1-6.8c0.4-0.6,1.2-1.9,1.2-1.9c0.6-1-6.4-3.5-7.2-3.4C351,1.2,349.4,2.6,348.1,4.6z"
	/>
<g>
	<path class="st2" d="M54.4,64c-4.3,2.8-9.7,4.1-16.3,4.1c-5.3,0-10.1-1.3-14.6-3.9c-4.5-2.6-8-6.1-10.6-10.5
		c-2.6-4.4-3.9-9.2-3.9-14.3s1.3-9.9,3.9-14.3c2.6-4.4,6.2-7.9,10.6-10.5c4.4-2.6,9.3-3.9,14.6-3.9c5.9,0,11.1,1.4,15.6,4.2
		c4.5,2.8,7.9,6.7,10.4,11.5l-7.8,3.1c-1.1,0.4-2,0.6-2.7,0.6c-1,0-1.9-0.2-2.7-0.7c-0.9-0.5-1.8-1.2-2.7-2.2
		c-2.7-2.6-6-3.9-9.9-3.9c-2.8,0-5.3,0.7-7.6,2c-2.3,1.3-4.1,3.2-5.5,5.7c-1.3,2.4-2,5.2-2,8.3c0,3.1,0.7,5.9,2,8.3
		c1.3,2.4,3.2,4.3,5.5,5.7c2.3,1.3,4.8,2,7.6,2c3.9,0,7.3-1.3,10-3.9c1-1,1.9-1.8,2.7-2.2c0.8-0.5,1.7-0.7,2.7-0.7
		c0.8,0,1.7,0.2,2.7,0.6l7.6,3C61.8,57.3,58.7,61.2,54.4,64z"/>
	<path class="st2" d="M117.8,13.2c1,1,1.6,2.5,1.6,4.5v49.5h-7.9c-2,0-3.5-0.5-4.5-1.6c-1-1-1.6-2.5-1.6-4.5V46.1H83.4v21h-7.8
		c-2,0-3.5-0.5-4.5-1.6c-1-1-1.6-2.5-1.6-4.5V11.6h7.8c2,0,3.5,0.5,4.5,1.6c1,1,1.6,2.5,1.6,4.5v16.2h21.9V11.6h7.9
		C115.2,11.6,116.7,12.1,117.8,13.2z"/>
	<path class="st2" d="M142.2,33h22.4v5.5c0,2-0.5,3.5-1.6,4.5c-1,1-2.5,1.6-4.5,1.6h-16.3v10.2h22.5c2,0,3.5,0.5,4.5,1.6
		c1,1,1.6,2.5,1.6,4.5v6.3h-42.5V11.6h42.5v6.3c0,2-0.5,3.5-1.6,4.5c-1,1-2.5,1.6-4.5,1.6h-22.5V33z"/>
	<path class="st2" d="M191.1,65.6c-1,1-2.5,1.6-4.5,1.6h-7.8V11.6H203c7,0,12.4,1.8,16,5.4c3.7,3.6,5.5,8.4,5.5,14.3
		c0,3.8-0.9,7.1-2.7,9.9c-1.8,2.7-4.4,4.8-7.9,6.2l14.7,19.7h-12.1c-1.6,0-3-0.3-4.2-0.9c-1.2-0.6-2.2-1.6-3.1-2.9l-9.6-13.8h-6.9
		v11.5C192.7,63,192.2,64.6,191.1,65.6z M203.5,38.5c1.9,0,3.6-0.7,5-2c1.4-1.3,2.2-3.1,2.2-5.2c0-2.3-0.7-4.1-2.1-5.4
		c-1.4-1.3-3.1-2-5.1-2h-10.8v14.6H203.5z"/>
	<path class="st2" d="M245.1,65.6c-1,1-2.5,1.6-4.5,1.6h-7.8V11.6h24.2c7,0,12.4,1.8,16,5.4c3.7,3.6,5.5,8.4,5.5,14.3
		c0,3.8-0.9,7.1-2.7,9.9c-1.8,2.7-4.4,4.8-7.9,6.2l14.7,19.7h-12.1c-1.6,0-3-0.3-4.2-0.9c-1.2-0.6-2.2-1.6-3.1-2.9l-9.6-13.8h-6.9
		v11.5C246.6,63,246.1,64.6,245.1,65.6z M257.5,38.5c1.9,0,3.6-0.7,5-2c1.4-1.3,2.2-3.1,2.2-5.2c0-2.3-0.7-4.1-2.1-5.4
		c-1.4-1.3-3.1-2-5.1-2h-10.8v14.6H257.5z"/>
	<path class="st2" d="M311.2,46.1v14.9c0,2-0.5,3.5-1.6,4.5c-1,1-2.5,1.6-4.5,1.6h-8V46.1L276,11.6h11.4c1.7,0,3.1,0.3,4.2,1
		c1.1,0.7,2.1,1.7,3,3.2l9.6,16.5l9.7-16.5c0.9-1.5,1.9-2.5,3-3.2c1.1-0.7,2.5-1,4.2-1h11.8L311.2,46.1z"/>
</g>
<g>
	<path class="st2" d="M409.5,64c-4.3,2.8-9.7,4.1-16.3,4.1c-5.3,0-10.1-1.3-14.6-3.9s-8-6.1-10.6-10.5c-2.6-4.4-3.9-9.2-3.9-14.3
		s1.3-9.9,3.9-14.3c2.6-4.4,6.2-7.9,10.6-10.5s9.3-3.9,14.6-3.9c5.9,0,11.1,1.4,15.6,4.2c4.5,2.8,7.9,6.7,10.4,11.5l-7.8,3.1
		c-1.1,0.4-2,0.6-2.7,0.6c-1,0-1.9-0.2-2.7-0.7c-0.9-0.5-1.8-1.2-2.7-2.2c-2.7-2.6-6-3.9-9.9-3.9c-2.8,0-5.3,0.7-7.6,2
		c-2.3,1.3-4.1,3.2-5.5,5.7c-1.3,2.4-2,5.2-2,8.3c0,3.1,0.7,5.9,2,8.3c1.3,2.4,3.2,4.3,5.5,5.7c2.3,1.3,4.8,2,7.6,2
		c3.9,0,7.3-1.3,10-3.9c1-1,1.9-1.8,2.7-2.2c0.8-0.5,1.7-0.7,2.7-0.7c0.8,0,1.7,0.2,2.7,0.6l7.6,3C417,57.3,413.8,61.2,409.5,64z"/>
	<path class="st2" d="M437,65.6c-1,1-2.5,1.6-4.5,1.6h-7.8V11.6h24.2c7,0,12.4,1.8,16,5.4c3.7,3.6,5.5,8.4,5.5,14.3
		c0,3.8-0.9,7.1-2.7,9.9c-1.8,2.7-4.4,4.8-7.9,6.2l14.7,19.7h-12.1c-1.6,0-3-0.3-4.2-0.9c-1.2-0.6-2.2-1.6-3.1-2.9l-9.6-13.8h-6.9
		v11.5C438.6,63,438.1,64.6,437,65.6z M449.4,38.5c1.9,0,3.6-0.7,5-2c1.4-1.3,2.2-3.1,2.2-5.2c0-2.3-0.7-4.1-2.1-5.4
		c-1.4-1.3-3.1-2-5.1-2h-10.8v14.6H449.4z"/>
	<path class="st2" d="M492.4,33h22.4v5.5c0,2-0.5,3.5-1.6,4.5c-1,1-2.5,1.6-4.5,1.6h-16.3v10.2h22.5c2,0,3.5,0.5,4.5,1.6
		c1,1,1.6,2.5,1.6,4.5v6.3h-42.5V11.6H521v6.3c0,2-0.5,3.5-1.6,4.5c-1,1-2.5,1.6-4.5,1.6h-22.5V33z"/>
	<path class="st2" d="M542.7,33h22.4v5.5c0,2-0.5,3.5-1.6,4.5c-1,1-2.5,1.6-4.5,1.6h-16.3v10.2h22.5c2,0,3.5,0.5,4.5,1.6
		c1,1,1.6,2.5,1.6,4.5v6.3h-42.5V11.6h42.5v6.3c0,2-0.5,3.5-1.6,4.5c-1,1-2.5,1.6-4.5,1.6h-22.5V33z"/>
	<path class="st2" d="M612.6,66.3c-1.2-0.5-2.3-1.4-3.4-2.5l-16-17.5v14.7c0,2-0.5,3.5-1.6,4.5c-1,1-2.5,1.6-4.5,1.6h-7.9V11.6h7.9
		c2,0,3.5,0.5,4.5,1.6c1,1,1.6,2.5,1.6,4.5v16.9l15.1-19.3c1-1.3,2.1-2.2,3.3-2.8c1.2-0.6,2.5-0.9,4.1-0.9h12.9l-23.1,28.6
		l25.6,26.9h-14.3C615.2,67.1,613.8,66.9,612.6,66.3z"/>
</g>
<!--
<g>
	<path class="st3" d="M270.2,119.8v30.9c0,2.7-0.7,4.8-2.1,6.2c-1.4,1.4-3.5,2.1-6.2,2.1h-10.8V83.1h5.4l43.1,39.8V91.4
		c0-2.7,0.7-4.8,2.1-6.2c1.4-1.4,3.5-2.1,6.2-2.1h10.9V159h-5.3L270.2,119.8z"/>
	<path class="st3" d="M442.5,156.9c-1.4,1.4-3.5,2.1-6.2,2.1h-10.7V83.1h33.1c9.6,0,16.9,2.5,21.9,7.4c5,4.9,7.5,11.4,7.5,19.6
		c0,5.3-1.2,9.7-3.7,13.5c-2.5,3.7-6,6.6-10.7,8.5l20.1,27h-16.6c-2.2,0-4.1-0.4-5.8-1.2c-1.6-0.8-3.1-2.1-4.3-3.9L454,134.9h-9.4
		v15.8C444.6,153.4,443.9,155.5,442.5,156.9z M459.4,119.9c2.6,0,4.9-0.9,6.9-2.7c2-1.8,3-4.2,3-7.2c0-3.1-1-5.6-2.9-7.4
		c-1.9-1.8-4.3-2.7-6.9-2.7h-14.8v19.9H459.4z"/>
	<path class="st3" d="M551,97.9c-1.4,1.4-3.5,2.1-6.2,2.1h-12.2v50.7c0,2.7-0.7,4.8-2.1,6.2c-1.4,1.4-3.5,2.1-6.2,2.1h-10.9v-59
		h-20.5v-8.6c0-2.7,0.7-4.8,2.1-6.2c1.4-1.4,3.5-2.1,6.2-2.1h51.9v8.6C553.1,94.4,552.4,96.5,551,97.9z"/>
	<path class="st3" d="M627.8,85.2c1.4,1.4,2.1,3.5,2.1,6.2V159h-10.8c-2.7,0-4.8-0.7-6.2-2.1c-1.4-1.4-2.1-3.5-2.1-6.2v-20.4h-30
		V159h-10.7c-2.7,0-4.8-0.7-6.2-2.1c-1.4-1.4-2.1-3.5-2.1-6.2V83.1h10.7c2.7,0,4.8,0.7,6.2,2.1c1.4,1.4,2.1,3.5,2.1,6.2v22.2h30
		V83.1h10.8C624.3,83.1,626.4,83.8,627.8,85.2z"/>
</g>
-->
</svg>
